<?xml version="1.0" standalone="no"?>
<!DOCTYPE svg PUBLIC "-//W3C//DTD SVG 20010904//EN"
 "http://www.w3.org/TR/2001/REC-SVG-20010904/DTD/svg10.dtd">
<svg version="1.0" xmlns="http://www.w3.org/2000/svg"
 width="700.000000pt" height="700.000000pt" viewBox="0 0 700.000000 700.000000"
 preserveAspectRatio="xMidYMid meet">
<metadata>
Created by potrace 1.11, written by Peter Selinger 2001-2013
</metadata>
<g transform="translate(0.000000,700.000000) scale(0.100000,-0.100000)"
fill="#000000" stroke="none">
<path d="M2559 6448 c-2 -11 -19 -162 -24 -218 -7 -86 -16 -187 -20 -210 -2
-14 -6 -56 -10 -95 -3 -38 -7 -86 -10 -105 -10 -89 -18 -170 -29 -290 -4 -41
-9 -91 -11 -110 -7 -67 -15 -135 -21 -197 -3 -35 -7 -75 -9 -90 -2 -16 -7 -62
-10 -103 -3 -41 -8 -86 -10 -100 -2 -14 -7 -60 -11 -104 -3 -43 -8 -85 -9 -95
-2 -9 -4 -24 -4 -33 -1 -17 -37 -18 -621 -18 l-620 0 -1 -22 c0 -13 -2 -31 -4
-40 -2 -10 -6 -55 -9 -101 -4 -46 -8 -94 -11 -108 -3 -22 -7 -60 -21 -199 -3
-30 -7 -70 -9 -87 l-3 -33 619 0 620 0 -6 -67 c-3 -38 -8 -82 -10 -99 -2 -17
-7 -57 -10 -90 -3 -32 -7 -77 -10 -99 -2 -22 -7 -71 -10 -110 -4 -38 -8 -81
-10 -95 -2 -14 -6 -54 -10 -90 -3 -36 -8 -85 -10 -110 -3 -25 -7 -72 -10 -105
-3 -33 -8 -76 -10 -95 -2 -19 -7 -64 -10 -100 -3 -36 -8 -74 -10 -85 -2 -11
-4 -23 -4 -27 -1 -5 -305 -9 -678 -10 -667 -3 -676 -3 -679 -23 -2 -11 -6 -53
-10 -94 -3 -41 -7 -83 -9 -93 -2 -10 -7 -57 -10 -106 -4 -48 -9 -95 -10 -104
-2 -9 -7 -51 -10 -93 l-7 -75 509 0 c830 1 854 0 849 -8 -3 -5 -8 -40 -11 -78
-3 -38 -8 -82 -10 -99 -2 -16 -6 -61 -10 -100 -3 -38 -8 -86 -10 -105 -3 -19
-7 -66 -10 -105 -3 -38 -8 -81 -10 -95 -3 -14 -7 -59 -10 -100 -3 -41 -7 -91
-10 -110 -6 -43 -12 -94 -20 -180 -8 -94 -16 -180 -20 -220 -2 -19 -7 -66 -11
-105 -3 -38 -8 -77 -9 -85 -2 -8 -6 -55 -10 -105 -4 -49 -9 -98 -11 -108 -2
-10 -6 -51 -9 -92 l-7 -75 296 0 296 0 1 28 c0 15 2 34 4 44 1 9 6 51 9 95 3
43 8 89 10 103 3 14 7 57 11 95 3 39 8 86 10 105 2 19 6 64 10 100 3 36 8 81
10 100 2 19 7 69 10 110 4 41 8 89 10 105 6 47 19 179 31 300 3 39 8 77 9 86
2 9 6 49 9 90 7 88 16 173 21 214 2 17 7 66 10 110 4 44 8 81 9 82 2 2 673 4
1085 3 l93 0 -6 -77 c-3 -43 -8 -87 -10 -98 -2 -11 -7 -56 -11 -100 -12 -138
-15 -169 -20 -215 -10 -88 -24 -227 -30 -295 -9 -101 -17 -182 -20 -205 -4
-32 -13 -117 -20 -200 -3 -36 -8 -81 -10 -100 -3 -19 -7 -57 -9 -85 -10 -101
-18 -181 -21 -210 -2 -16 -6 -65 -10 -108 l-7 -77 294 2 293 3 12 105 c6 58
14 139 18 180 3 41 8 95 11 120 2 25 7 65 9 90 3 25 7 65 10 90 3 25 7 65 9
90 13 140 17 178 21 210 2 19 7 64 10 100 3 36 8 85 11 110 5 45 7 69 19 190
3 36 8 81 10 100 2 19 7 67 11 105 3 39 8 81 9 95 2 14 6 59 10 100 3 41 8 76
9 78 2 1 280 2 619 2 482 0 617 3 618 13 0 6 2 20 4 29 2 9 6 54 10 100 4 46
8 90 10 98 2 8 6 51 9 95 4 44 9 94 11 110 2 17 7 56 10 88 l6 57 -620 0 -621
0 4 33 c6 44 14 118 21 202 3 39 8 84 10 100 2 17 7 62 10 100 3 39 7 84 10
100 2 17 7 62 10 100 3 39 8 84 10 100 2 17 7 62 10 100 3 39 8 86 10 105 3
19 7 69 11 110 4 41 8 82 10 90 1 8 3 21 3 28 1 9 144 12 681 12 l680 0 1 38
c0 20 2 44 4 52 1 9 5 49 9 90 3 41 9 93 11 115 3 22 7 60 10 85 10 111 17
186 19 195 1 7 -232 11 -677 13 l-679 2 7 58 c3 31 8 77 10 102 2 25 7 70 10
100 3 30 8 75 10 100 12 126 16 168 20 200 2 19 7 64 10 100 3 36 8 81 10 100
2 19 7 64 10 100 3 36 8 81 10 100 3 19 7 64 10 100 3 36 8 81 10 100 2 19 7
67 11 105 4 39 8 81 9 95 2 14 6 59 10 100 4 41 9 86 10 100 1 14 6 59 9 100
4 41 10 83 12 93 5 16 -12 17 -292 15 -275 -3 -297 -4 -300 -21 -1 -9 -5 -51
-9 -93 -3 -41 -8 -83 -10 -93 -2 -9 -6 -52 -9 -94 -4 -42 -9 -91 -11 -109 -2
-18 -6 -62 -10 -98 -5 -62 -12 -125 -20 -200 -4 -34 -10 -93 -20 -210 -3 -30
-7 -71 -10 -90 -2 -19 -7 -64 -10 -100 -5 -61 -11 -117 -20 -200 -2 -19 -7
-69 -10 -110 -4 -41 -8 -82 -10 -90 -2 -8 -7 -52 -10 -98 -4 -46 -8 -91 -10
-100 -2 -9 -4 -27 -4 -39 l-1 -23 -591 0 -590 0 6 53 c3 28 8 72 11 97 2 25 7
68 9 95 6 68 14 151 20 205 6 46 10 90 20 195 3 33 8 76 10 95 2 19 7 69 10
110 4 41 8 86 10 100 2 14 6 54 10 90 3 36 8 88 11 115 2 28 6 66 9 85 2 19 7
64 10 100 3 36 8 85 10 110 10 100 15 148 20 205 3 33 8 72 11 88 l6 27 -296
0 c-163 0 -296 -1 -297 -2z m1526 -2410 c-6 -54 -10 -93 -20 -208 -4 -36 -8
-76 -10 -90 -2 -14 -6 -59 -10 -100 -3 -41 -8 -91 -10 -110 -2 -19 -7 -64 -10
-100 -4 -36 -8 -76 -10 -90 -2 -14 -6 -56 -10 -95 -3 -38 -8 -86 -10 -105 -2
-19 -7 -68 -10 -107 -4 -40 -8 -81 -10 -90 -2 -10 -4 -21 -4 -25 -1 -5 -266
-8 -590 -8 l-590 0 4 23 c2 12 9 75 15 141 6 65 12 133 15 150 2 17 6 63 10
103 3 39 8 82 10 95 2 13 6 57 10 98 4 41 8 91 10 110 5 41 15 149 20 204 6
67 19 191 21 199 1 4 2 18 3 32 l1 25 591 0 590 0 -6 -52z"/>
</g>
</svg>
